HIERARCHY
ROOT hip
{
	OFFSET 0.000000 0.000000 0.000000 
	CHANNELS 6 Xposition Yposition Zposition Xrotation Yrotation Zrotation
	JOINT abdomen
	{
		OFFSET 0.000000 3.402643 0.000000 
		CHANNELS 3 Xrotation  Yrotation Zrotation
		JOINT chest
		{
			OFFSET 0.000000 8.438565 -0.680529 
			CHANNELS 3 Xrotation  Yrotation Zrotation
			JOINT neck
			{
				OFFSET 0.000000 10.207942 -0.272212 
				CHANNELS 3 Xrotation  Yrotation Zrotation
				JOINT head
				{
					OFFSET 0.000000 3.130431 0.000000 
					CHANNELS 3 Xrotation  Yrotation Zrotation
					End Site
					{
						OFFSET 0.000000 3.130435 0.000000 
					}
				}
			}
			JOINT lCollar
			{
				OFFSET 3.470700 6.669187 -0.816635 
				CHANNELS 3 Xrotation  Yrotation Zrotation
				JOINT lShldr
				{
					OFFSET 3.198488 0.000000 0.000000 
					CHANNELS 3 Xrotation  Yrotation Zrotation
					JOINT lForeArm
					{
						OFFSET 10.139888 0.000000 0.000000 
						CHANNELS 3 Xrotation  Yrotation Zrotation
						JOINT lHand
						{
							OFFSET 8.370511 0.000000 0.000000 
							CHANNELS 3 Xrotation  Yrotation Zrotation
							End Site
							{
								OFFSET 4.083176 0.000000 0.000000 
							}
						}
					}
				}
			}
			JOINT rCollar
			{
				OFFSET -3.470700 6.669187 -0.816635 
				CHANNELS 3 Xrotation  Yrotation Zrotation
				JOINT rShldr
				{
					OFFSET -3.198488 0.000000 0.000000 
					CHANNELS 3 Xrotation  Yrotation Zrotation
					JOINT rForeArm
					{
						OFFSET -10.139888 0.000000 0.000000 
						CHANNELS 3 Xrotation  Yrotation Zrotation
						JOINT rHand
						{
							OFFSET -8.370511 0.000000 0.000000 
							CHANNELS 3 Xrotation  Yrotation Zrotation
							End Site
							{
								OFFSET -4.083176 0.000000 0.000000 
							}
						}
					}
				}
			}
		}
	}
	JOINT lThigh
	{
		OFFSET 5.308129 -1.633274 1.361059 
		CHANNELS 3 Xrotation  Yrotation Zrotation
		JOINT lShin
		{
			OFFSET -2.041588 -20.007561 0.000000 
			CHANNELS 3 Xrotation  Yrotation Zrotation
			JOINT lFoot
			{
				OFFSET 0.000000 -19.190928 -1.224953 
				CHANNELS 3 Xrotation  Yrotation Zrotation
				End Site
				{
					OFFSET 0.000000 -2.449906 4.627600 
				}
			}
		}
	}
	JOINT rThigh
	{
		OFFSET -5.308129 -1.633274 1.361059 
		CHANNELS 3 Xrotation  Yrotation Zrotation
		JOINT rShin
		{
			OFFSET 2.041588 -20.007561 0.000000 
			CHANNELS 3 Xrotation  Yrotation Zrotation
			JOINT rFoot
			{
				OFFSET 0.000000 -19.190928 -1.224953 
				CHANNELS 3 Xrotation  Yrotation Zrotation
				End Site
				{
					OFFSET 0.000000 -2.449906 4.627600 
				}
			}
		}
	}
}
MOTION
Frames: 8
Frame Time: 0.033333
0.539985 41.164379 -0.264726 16.402536 9.809333 -2.172301 0.000000 0.000000 0.000000 1.211127 5.954535 -2.159852 1.118941 0.136045 2.016170 -22.130693 -13.055928 -5.042976 23.571951 -12.899060 30.366051 -19.218695 2.316505 -85.835335 82.793739 -13.377679 40.981976 -58.106155 8.876510 -7.097103 18.589954 -24.463013 -10.745252 50.212227 53.891781 37.026199 5.894419 31.014202 -31.164227 -79.334648 -32.257172 -2.739864 -9.136343 16.730158 -0.493295 66.746437 2.748622 26.225132 -50.603081 4.354731 -10.769398 -58.703194 0.730826 -10.595671 81.526207 6.999641 2.430171 -14.262826 6.390546 20.885015 
0.587528 41.603878 -0.190277 16.580696 10.352250 -1.845682 0.000000 0.000000 0.000000 0.994676 5.890317 -2.454261 1.021546 0.131767 1.967526 -22.669538 -13.167711 -5.635401 23.576572 -13.590427 31.042656 -18.847816 2.152515 -86.871414 81.144295 -14.346659 39.502747 -58.297592 8.819563 -6.330771 18.594305 -24.895592 -10.311637 50.338516 53.390358 36.986828 8.056998 30.555933 -32.810406 -79.296852 -31.881618 -2.668938 -7.699976 16.352844 -1.923463 63.660149 3.068046 27.364513 -47.952087 4.319514 -7.199568 -57.577927 0.526890 -11.064898 79.721138 6.755835 2.025692 -12.102970 6.754411 22.738356 
0.590933 42.472256 -0.084220 17.080753 10.974331 -1.771876 0.000000 0.000000 0.000000 0.247121 5.834714 -2.817495 1.264276 0.158188 2.349678 -22.845303 -13.411096 -5.959209 23.586901 -14.542234 31.975479 -18.567669 2.000066 -87.743134 80.563545 -15.154045 38.316216 -58.432739 9.098320 -5.498425 18.726582 -25.507566 -9.325539 50.352688 52.717102 36.794594 9.877091 30.239197 -33.995903 -79.281685 -31.274872 -2.782131 -6.861773 16.117195 -2.785014 59.547024 3.336259 28.118858 -42.818901 2.673125 -3.994181 -55.327351 0.264679 -11.473427 75.968605 6.481837 2.142901 -9.740849 6.992469 23.832478 
0.538099 43.771343 0.022859 18.136162 11.598239 -1.848282 0.000000 0.000000 0.000000 -1.256877 5.737836 -3.385020 1.818151 0.202879 3.041975 -22.602734 -13.694764 -5.707590 23.544510 -15.346532 33.045799 -18.314764 1.903496 -88.341263 81.500916 -15.856289 37.732655 -58.490665 9.756689 -4.761264 18.898111 -26.245943 -8.217219 50.346596 52.347054 36.673191 9.951385 30.931044 -33.993710 -79.301834 -30.393953 -3.422265 -7.416304 16.029749 -2.987186 55.405617 3.451196 27.858435 -35.316322 -0.318300 -4.537240 -52.055752 0.084010 -11.424813 69.734154 5.963185 2.287968 -7.952791 6.380470 24.005310 
0.464855 45.703011 -0.080886 21.698198 11.825592 -2.105200 0.000000 0.000000 0.000000 -5.227537 5.631445 -4.101750 2.412978 0.227306 3.330436 -21.512720 -14.140023 -4.931607 23.283684 -14.729762 33.717884 -18.075146 1.798259 -88.921837 84.732567 -15.589954 38.255283 -58.280098 10.358300 -5.222359 18.717958 -26.680246 -8.344702 49.836048 53.924770 36.715263 9.391917 30.420343 -33.432991 -79.293709 -29.966751 -3.100892 -12.652006 15.768620 -2.862693 52.416565 3.221194 25.886494 -24.820333 -5.813323 0.998128 -49.582191 -0.036792 -11.327144 59.079769 5.092081 2.764769 -0.594585 4.943851 27.568594 
0.423875 47.656094 -0.195648 25.110674 11.335037 -2.347334 0.000000 0.000000 0.000000 -9.182940 5.598918 -4.353655 3.167619 0.207433 3.047683 -20.459337 -14.030713 -3.943861 23.080708 -13.200189 33.241379 -17.068058 1.830456 -88.913979 88.503227 -14.826696 39.454132 -57.994862 10.847946 -6.079167 18.659781 -26.417261 -8.725130 49.122627 55.374451 36.636360 9.457967 29.645435 -33.503826 -79.268539 -30.134283 -2.580100 -18.273581 15.437044 -2.422854 50.136833 2.762289 23.194229 -15.131639 -10.467533 8.835175 -46.715370 -0.030342 -10.779531 47.411205 3.981201 2.770004 7.963328 3.543171 30.288960 
0.478711 49.224518 -0.204621 26.732038 9.616570 -2.484180 0.000000 0.000000 0.000000 -11.630192 5.796477 -3.408801 4.276456 0.105254 1.787019 -20.087975 -12.892684 -3.051950 23.171797 -10.943083 30.717875 -14.681589 2.178493 -87.839828 91.965454 -13.257351 41.527992 -57.677586 11.185355 -7.121181 19.112612 -25.010080 -8.714440 48.453251 55.146526 36.049026 11.244771 29.133499 -35.183971 -79.219521 -31.330393 -2.144130 -22.097958 15.290700 -1.528310 48.784161 2.355439 20.751093 -9.076578 -13.187870 14.932563 -43.163998 0.134141 -9.549474 38.051037 2.932016 2.086141 14.498991 2.807204 29.163607 
0.592950 50.475964 -0.226330 27.622484 8.213785 -1.996746 0.000000 0.000000 0.000000 -13.155241 5.921370 -2.797750 5.273823 -0.002927 0.277099 -20.056879 -11.633829 -1.984621 23.282282 -8.900411 28.350477 -12.739827 2.515282 -87.056335 94.302124 -11.980089 42.816898 -57.394238 11.439734 -7.999343 19.415180 -23.495184 -9.210980 47.545666 55.938538 35.659805 11.522625 27.670547 -35.833851 -79.180458 -31.183443 -2.320440 -25.648069 14.832036 -1.576499 49.190968 2.027986 19.256689 -6.455896 -14.276989 18.810455 -40.380756 0.103683 -9.091223 33.645878 2.332931 1.303866 16.543585 2.776711 28.975574 
